<?xml version="1.0" encoding="UTF-8"?>
<svg xmlns="http://www.w3.org/2000/svg" xmlns:xlink="http://www.w3.org/1999/xlink" width="61.076pt" height="32.73pt" viewBox="0 0 61.076 32.73" version="1.1">
<defs>
<clipPath id="clip1">
  <path d="M 28 28 L 33 28 L 33 32.730469 L 28 32.730469 Z M 28 28 "/>
</clipPath>
<clipPath id="clip2">
  <path d="M 22 22 L 39 22 L 39 32.730469 L 22 32.730469 Z M 22 22 "/>
</clipPath>
<clipPath id="clip3">
  <path d="M 51 0 L 61.074219 0 L 61.074219 10 L 51 10 Z M 51 0 "/>
</clipPath>
</defs>
<g id="surface1">
<g clip-path="url(#clip1)" clip-rule="nonzero">
<path style=" stroke:none;fill-rule:nonzero;fill:rgb(0%,0%,0%);fill-opacity:1;" d="M 32.53125 30.539062 C 32.53125 29.4375 31.636719 28.546875 30.539062 28.546875 C 29.4375 28.546875 28.546875 29.4375 28.546875 30.539062 C 28.546875 31.636719 29.4375 32.53125 30.539062 32.53125 C 31.636719 32.53125 32.53125 31.636719 32.53125 30.539062 Z M 32.53125 30.539062 "/>
</g>
<g clip-path="url(#clip2)" clip-rule="nonzero">
<path style="fill:none;stroke-width:0.3985;stroke-linecap:butt;stroke-linejoin:miter;stroke:rgb(0%,0%,0%);stroke-opacity:1;stroke-miterlimit:10;" d="M 1.99325 -0.0010625 C 1.99325 1.1005 1.098719 1.991125 0.0010625 1.991125 C -1.1005 1.991125 -1.991125 1.1005 -1.991125 -0.0010625 C -1.991125 -1.098719 -1.1005 -1.99325 0.0010625 -1.99325 C 1.098719 -1.99325 1.99325 -1.098719 1.99325 -0.0010625 Z M 1.99325 -0.0010625 " transform="matrix(1,0,0,-1,30.538,30.538)"/>
</g>
<path style="fill-rule:nonzero;fill:rgb(0%,0%,0%);fill-opacity:1;stroke-width:0.3985;stroke-linecap:butt;stroke-linejoin:miter;stroke:rgb(0%,0%,0%);stroke-opacity:1;stroke-miterlimit:10;" d="M -26.354406 28.346594 C -26.354406 29.448156 -27.245031 30.338781 -28.346594 30.338781 C -29.448156 30.338781 -30.338781 29.448156 -30.338781 28.346594 C -30.338781 27.245031 -29.448156 26.354406 -28.346594 26.354406 C -27.245031 26.354406 -26.354406 27.245031 -26.354406 28.346594 Z M -26.354406 28.346594 " transform="matrix(1,0,0,-1,30.538,30.538)"/>
<path style=" stroke:none;fill-rule:nonzero;fill:rgb(0%,0%,0%);fill-opacity:1;" d="M 60.878906 2.191406 C 60.878906 1.089844 59.984375 0.199219 58.886719 0.199219 C 57.785156 0.199219 56.890625 1.089844 56.890625 2.191406 C 56.890625 3.292969 57.785156 4.183594 58.886719 4.183594 C 59.984375 4.183594 60.878906 3.292969 60.878906 2.191406 Z M 60.878906 2.191406 "/>
<g clip-path="url(#clip3)" clip-rule="nonzero">
<path style="fill:none;stroke-width:0.3985;stroke-linecap:butt;stroke-linejoin:miter;stroke:rgb(0%,0%,0%);stroke-opacity:1;stroke-miterlimit:10;" d="M 30.340906 28.346594 C 30.340906 29.448156 29.446375 30.338781 28.348719 30.338781 C 27.247156 30.338781 26.352625 29.448156 26.352625 28.346594 C 26.352625 27.245031 27.247156 26.354406 28.348719 26.354406 C 29.446375 26.354406 30.340906 27.245031 30.340906 28.346594 Z M 30.340906 28.346594 " transform="matrix(1,0,0,-1,30.538,30.538)"/>
</g>
</g>
</svg>
