<?xml version="1.0" encoding="UTF-8"?>
<svg xmlns="http://www.w3.org/2000/svg" xmlns:xlink="http://www.w3.org/1999/xlink" width="144.522pt" height="59.482pt" viewBox="0 0 144.522 59.482" version="1.1">
<defs>
<clipPath id="clip1">
  <path d="M 59 45 L 85 45 L 85 59.480469 L 59 59.480469 Z M 59 45 "/>
</clipPath>
<clipPath id="clip2">
  <path d="M 130 17 L 144.523438 17 L 144.523438 43 L 130 43 Z M 130 17 "/>
</clipPath>
<clipPath id="clip3">
  <path d="M 130 3 L 144.523438 3 L 144.523438 28 L 130 28 Z M 130 3 "/>
</clipPath>
</defs>
<g id="surface1">
<g clip-path="url(#clip1)" clip-rule="nonzero">
<path style="fill:none;stroke-width:0.79701;stroke-linecap:butt;stroke-linejoin:miter;stroke:rgb(0%,0%,0%);stroke-opacity:1;stroke-miterlimit:10;" d="M 0.996812 -14.171937 C 0.996812 -13.625062 0.5515 -13.175844 0.00071875 -13.175844 C -0.550063 -13.175844 -0.995375 -13.625062 -0.995375 -14.171937 C -0.995375 -14.722719 -0.550063 -15.168031 0.00071875 -15.168031 C 0.5515 -15.168031 0.996812 -14.722719 0.996812 -14.171937 Z M 0.996812 -14.171937 " transform="matrix(1,0,0,-1,72.261,43.914)"/>
</g>
<path style="fill:none;stroke-width:0.79701;stroke-linecap:butt;stroke-linejoin:miter;stroke:rgb(0%,0%,0%);stroke-opacity:1;stroke-miterlimit:10;" d="M -69.870375 14.171813 C -69.870375 14.722594 -70.315688 15.167906 -70.866469 15.167906 C -71.41725 15.167906 -71.862563 14.722594 -71.862563 14.171813 C -71.862563 13.624938 -71.41725 13.175719 -70.866469 13.175719 C -70.315688 13.175719 -69.870375 13.624938 -69.870375 14.171813 Z M -69.870375 14.171813 " transform="matrix(1,0,0,-1,72.261,43.914)"/>
<g clip-path="url(#clip2)" clip-rule="nonzero">
<path style="fill:none;stroke-width:0.79701;stroke-linecap:butt;stroke-linejoin:miter;stroke:rgb(0%,0%,0%);stroke-opacity:1;stroke-miterlimit:10;" d="M 71.864 14.171813 C 71.864 14.722594 71.418687 15.167906 70.867906 15.167906 C 70.317125 15.167906 69.871812 14.722594 69.871812 14.171813 C 69.871812 13.624938 70.317125 13.175719 70.867906 13.175719 C 71.418687 13.175719 71.864 13.624938 71.864 14.171813 Z M 71.864 14.171813 " transform="matrix(1,0,0,-1,72.261,43.914)"/>
</g>
<path style="fill:none;stroke-width:0.79701;stroke-linecap:butt;stroke-linejoin:miter;stroke:rgb(0%,0%,0%);stroke-opacity:1;stroke-miterlimit:10;" d="M -69.870375 28.347594 C -69.870375 28.898375 -70.315688 29.343688 -70.866469 29.343688 C -71.41725 29.343688 -71.862563 28.898375 -71.862563 28.347594 C -71.862563 27.796813 -71.41725 27.3515 -70.866469 27.3515 C -70.315688 27.3515 -69.870375 27.796813 -69.870375 28.347594 Z M -69.870375 28.347594 " transform="matrix(1,0,0,-1,72.261,43.914)"/>
<g clip-path="url(#clip3)" clip-rule="nonzero">
<path style="fill:none;stroke-width:0.79701;stroke-linecap:butt;stroke-linejoin:miter;stroke:rgb(0%,0%,0%);stroke-opacity:1;stroke-miterlimit:10;" d="M 71.864 28.347594 C 71.864 28.898375 71.418687 29.343688 70.867906 29.343688 C 70.317125 29.343688 69.871812 28.898375 69.871812 28.347594 C 69.871812 27.796813 70.317125 27.3515 70.867906 27.3515 C 71.418687 27.3515 71.864 27.796813 71.864 28.347594 Z M 71.864 28.347594 " transform="matrix(1,0,0,-1,72.261,43.914)"/>
</g>
<path style="fill:none;stroke-width:0.79701;stroke-linecap:butt;stroke-linejoin:miter;stroke:rgb(0%,0%,0%);stroke-opacity:1;stroke-miterlimit:10;" d="M -69.870375 42.519469 C -69.870375 43.07025 -70.315688 43.515563 -70.866469 43.515563 C -71.41725 43.515563 -71.862563 43.07025 -71.862563 42.519469 C -71.862563 41.968688 -71.41725 41.523375 -70.866469 41.523375 C -70.315688 41.523375 -69.870375 41.968688 -69.870375 42.519469 Z M -69.870375 42.519469 " transform="matrix(1,0,0,-1,72.261,43.914)"/>
<path style="fill:none;stroke-width:0.79701;stroke-linecap:butt;stroke-linejoin:miter;stroke:rgb(0%,0%,0%);stroke-opacity:1;stroke-miterlimit:10;" d="M -69.870375 42.519469 C -69.870375 43.07025 -70.315688 43.515563 -70.866469 43.515563 C -71.41725 43.515563 -71.862563 43.07025 -71.862563 42.519469 C -71.862563 41.968688 -71.41725 41.523375 -70.866469 41.523375 C -70.315688 41.523375 -69.870375 41.968688 -69.870375 42.519469 Z M -69.870375 42.519469 " transform="matrix(1,0,0,-1,72.261,43.914)"/>
<path style="fill:none;stroke-width:0.79701;stroke-linecap:butt;stroke-linejoin:miter;stroke:rgb(0%,0%,0%);stroke-opacity:1;stroke-miterlimit:10;" d="M -69.870375 42.519469 C -69.870375 43.07025 -70.315688 43.515563 -70.866469 43.515563 C -71.41725 43.515563 -71.862563 43.07025 -71.862563 42.519469 C -71.862563 41.968688 -71.41725 41.523375 -70.866469 41.523375 C -70.315688 41.523375 -69.870375 41.968688 -69.870375 42.519469 Z M -69.870375 42.519469 " transform="matrix(1,0,0,-1,72.261,43.914)"/>
</g>
</svg>
