<?xml version="1.0" encoding="UTF-8"?>
<svg xmlns="http://www.w3.org/2000/svg" xmlns:xlink="http://www.w3.org/1999/xlink" width="144.123pt" height="59.084pt" viewBox="0 0 144.123 59.084" version="1.1">
<defs>
<clipPath id="clip1">
  <path d="M 65 51 L 79 51 L 79 59.085938 L 65 59.085938 Z M 65 51 "/>
</clipPath>
<clipPath id="clip2">
  <path d="M 136 37 L 144.121094 37 L 144.121094 51 L 136 51 Z M 136 37 "/>
</clipPath>
<clipPath id="clip3">
  <path d="M 136 22 L 144.121094 22 L 144.121094 37 L 136 37 Z M 136 22 "/>
</clipPath>
</defs>
<g id="surface1">
<path style=" stroke:none;fill-rule:nonzero;fill:rgb(0%,0%,0%);fill-opacity:1;" d="M 73.058594 57.886719 C 73.058594 57.335938 72.613281 56.890625 72.0625 56.890625 C 71.511719 56.890625 71.066406 57.335938 71.066406 57.886719 C 71.066406 58.4375 71.511719 58.882812 72.0625 58.882812 C 72.613281 58.882812 73.058594 58.4375 73.058594 57.886719 Z M 73.058594 57.886719 "/>
<g clip-path="url(#clip1)" clip-rule="nonzero">
<path style="fill:none;stroke-width:0.3985;stroke-linecap:butt;stroke-linejoin:miter;stroke:rgb(0%,0%,0%);stroke-opacity:1;stroke-miterlimit:10;" d="M 0.996594 0.00128125 C 0.996594 0.552062 0.551281 0.997375 0.0005 0.997375 C -0.550281 0.997375 -0.995594 0.552062 -0.995594 0.00128125 C -0.995594 -0.5495 -0.550281 -0.994813 0.0005 -0.994813 C 0.551281 -0.994813 0.996594 -0.5495 0.996594 0.00128125 Z M 0.996594 0.00128125 " transform="matrix(1,0,0,-1,72.062,57.888)"/>
</g>
<path style="fill-rule:nonzero;fill:rgb(0%,0%,0%);fill-opacity:1;stroke-width:0.3985;stroke-linecap:butt;stroke-linejoin:miter;stroke:rgb(0%,0%,0%);stroke-opacity:1;stroke-miterlimit:10;" d="M -69.870594 14.173156 C -69.870594 14.723937 -70.315906 15.16925 -70.866687 15.16925 C -71.417469 15.16925 -71.862781 14.723937 -71.862781 14.173156 C -71.862781 13.622375 -71.417469 13.177062 -70.866687 13.177062 C -70.315906 13.177062 -69.870594 13.622375 -69.870594 14.173156 Z M -69.870594 14.173156 " transform="matrix(1,0,0,-1,72.062,57.888)"/>
<path style=" stroke:none;fill-rule:nonzero;fill:rgb(0%,0%,0%);fill-opacity:1;" d="M 143.925781 43.714844 C 143.925781 43.164062 143.480469 42.71875 142.929688 42.71875 C 142.378906 42.71875 141.933594 43.164062 141.933594 43.714844 C 141.933594 44.265625 142.378906 44.710938 142.929688 44.710938 C 143.480469 44.710938 143.925781 44.265625 143.925781 43.714844 Z M 143.925781 43.714844 "/>
<g clip-path="url(#clip2)" clip-rule="nonzero">
<path style="fill:none;stroke-width:0.3985;stroke-linecap:butt;stroke-linejoin:miter;stroke:rgb(0%,0%,0%);stroke-opacity:1;stroke-miterlimit:10;" d="M 71.863781 14.173156 C 71.863781 14.723937 71.418469 15.16925 70.867688 15.16925 C 70.316906 15.16925 69.871594 14.723937 69.871594 14.173156 C 69.871594 13.622375 70.316906 13.177062 70.867688 13.177062 C 71.418469 13.177062 71.863781 13.622375 71.863781 14.173156 Z M 71.863781 14.173156 " transform="matrix(1,0,0,-1,72.062,57.888)"/>
</g>
<path style="fill-rule:nonzero;fill:rgb(0%,0%,0%);fill-opacity:1;stroke-width:0.3985;stroke-linecap:butt;stroke-linejoin:miter;stroke:rgb(0%,0%,0%);stroke-opacity:1;stroke-miterlimit:10;" d="M -69.870594 28.345031 C -69.870594 28.895812 -70.315906 29.345031 -70.866687 29.345031 C -71.417469 29.345031 -71.862781 28.895812 -71.862781 28.345031 C -71.862781 27.798156 -71.417469 27.348937 -70.866687 27.348937 C -70.315906 27.348937 -69.870594 27.798156 -69.870594 28.345031 Z M -69.870594 28.345031 " transform="matrix(1,0,0,-1,72.062,57.888)"/>
<path style=" stroke:none;fill-rule:nonzero;fill:rgb(0%,0%,0%);fill-opacity:1;" d="M 143.925781 29.542969 C 143.925781 28.992188 143.480469 28.542969 142.929688 28.542969 C 142.378906 28.542969 141.933594 28.992188 141.933594 29.542969 C 141.933594 30.089844 142.378906 30.539062 142.929688 30.539062 C 143.480469 30.539062 143.925781 30.089844 143.925781 29.542969 Z M 143.925781 29.542969 "/>
<g clip-path="url(#clip3)" clip-rule="nonzero">
<path style="fill:none;stroke-width:0.3985;stroke-linecap:butt;stroke-linejoin:miter;stroke:rgb(0%,0%,0%);stroke-opacity:1;stroke-miterlimit:10;" d="M 71.863781 28.345031 C 71.863781 28.895812 71.418469 29.345031 70.867688 29.345031 C 70.316906 29.345031 69.871594 28.895812 69.871594 28.345031 C 69.871594 27.798156 70.316906 27.348937 70.867688 27.348937 C 71.418469 27.348937 71.863781 27.798156 71.863781 28.345031 Z M 71.863781 28.345031 " transform="matrix(1,0,0,-1,72.062,57.888)"/>
</g>
<path style="fill-rule:nonzero;fill:rgb(0%,0%,0%);fill-opacity:1;stroke-width:0.3985;stroke-linecap:butt;stroke-linejoin:miter;stroke:rgb(0%,0%,0%);stroke-opacity:1;stroke-miterlimit:10;" d="M -69.870594 42.520812 C -69.870594 43.071594 -70.315906 43.516906 -70.866687 43.516906 C -71.417469 43.516906 -71.862781 43.071594 -71.862781 42.520812 C -71.862781 41.970031 -71.417469 41.524719 -70.866687 41.524719 C -70.315906 41.524719 -69.870594 41.970031 -69.870594 42.520812 Z M -69.870594 42.520812 " transform="matrix(1,0,0,-1,72.062,57.888)"/>
<path style="fill-rule:nonzero;fill:rgb(0%,0%,0%);fill-opacity:1;stroke-width:0.3985;stroke-linecap:butt;stroke-linejoin:miter;stroke:rgb(0%,0%,0%);stroke-opacity:1;stroke-miterlimit:10;" d="M -69.870594 42.520812 C -69.870594 43.071594 -70.315906 43.516906 -70.866687 43.516906 C -71.417469 43.516906 -71.862781 43.071594 -71.862781 42.520812 C -71.862781 41.970031 -71.417469 41.524719 -70.866687 41.524719 C -70.315906 41.524719 -69.870594 41.970031 -69.870594 42.520812 Z M -69.870594 42.520812 " transform="matrix(1,0,0,-1,72.062,57.888)"/>
<path style="fill-rule:nonzero;fill:rgb(0%,0%,0%);fill-opacity:1;stroke-width:0.3985;stroke-linecap:butt;stroke-linejoin:miter;stroke:rgb(0%,0%,0%);stroke-opacity:1;stroke-miterlimit:10;" d="M 0.996594 56.692687 C 0.996594 57.243469 0.551281 57.688781 0.0005 57.688781 C -0.550281 57.688781 -0.995594 57.243469 -0.995594 56.692687 C -0.995594 56.141906 -0.550281 55.696594 0.0005 55.696594 C 0.551281 55.696594 0.996594 56.141906 0.996594 56.692687 Z M 0.996594 56.692687 " transform="matrix(1,0,0,-1,72.062,57.888)"/>
</g>
</svg>
